<?xml version="1.0" encoding="UTF-8"?><svg id="uuid-6b787ed7-f4e5-4e8e-b4d4-9db531598827" xmlns="http://www.w3.org/2000/svg" width="48" height="48" viewBox="0 0 48 48"><g id="uuid-c6517211-a4ae-4d9f-8bcc-920cb56b2a5f"><path d="M24,0C10.766,0,0,10.766,0,24s10.766,24,24,24,24-10.766,24-24S37.234,0,24,0Zm3.971,35.064c-.108,.058-.221,.091-.335,.113-.009,.002-.016,.008-.025,.01-.063,.011-.126,.015-.189,.016h-.03c-.119-.003-.235-.026-.348-.063-.041-.013-.078-.032-.117-.049-.074-.033-.144-.073-.21-.121-.037-.027-.073-.053-.107-.084-.061-.056-.112-.121-.161-.19-.025-.035-.054-.065-.075-.103l-.011-.015c-.014-.027-.013-.056-.025-.084-.039-.088-.083-.175-.1-.274l-2.237-12.882-2.237,12.882c-.013,.073-.052,.131-.077,.198-.019,.053-.021,.108-.048,.16-.008,.016-.022,.027-.031,.042-.021,.036-.047,.065-.072,.099-.062,.084-.132,.156-.211,.219-.029,.023-.055,.047-.086,.068-.112,.073-.232,.129-.361,.162-.023,.006-.047,.005-.07,.009-.072,.014-.144,.029-.218,.029-.053,0-.105-.012-.158-.019-.015-.002-.028,.004-.043,.001-.009-.002-.015-.008-.024-.009-.115-.022-.228-.056-.336-.114-.352-.189-8.623-4.757-8.623-16.778,0-.656,.532-1.188,1.188-1.188s1.188,.532,1.188,1.188c0,7.693,3.824,11.914,5.961,13.677l.509-2.931c-4.221-6.998-4.532-14.68-4.542-15.009-.021-.656,.492-1.204,1.147-1.226,.647-.02,1.205,.491,1.228,1.146,.002,.065,.235,5.585,2.832,11.261l1.912-11.012c.099-.569,.593-.985,1.17-.985s1.072,.415,1.17,.985l1.913,11.012c2.597-5.676,2.83-11.196,2.832-11.261,.023-.655,.581-1.167,1.228-1.146,.655,.022,1.169,.57,1.147,1.226-.011,.329-.322,8.011-4.542,15.009l.512,2.946c2.144-1.747,5.958-5.938,5.958-13.692,0-.656,.532-1.188,1.188-1.188s1.188,.532,1.188,1.188c0,12.021-8.271,16.589-8.623,16.778Z" style="fill:#1a1a1a;"/></g></svg>